<svg xmlns="http://www.w3.org/2000/svg" width="25.519" height="17.544" viewBox="0 0 25.519 17.544"><defs><style>.a{fill:#2d2d2d;}</style></defs><g transform="translate(0 -80)"><path class="a" d="M25.519,84.137V82.791A2.791,2.791,0,0,0,22.728,80H2.791A2.791,2.791,0,0,0,0,82.791v1.346a.249.249,0,0,0,.249.249H25.27A.249.249,0,0,0,25.519,84.137Z"/><path class="a" d="M0,200.249v8.523a2.791,2.791,0,0,0,2.791,2.791H22.728a2.791,2.791,0,0,0,2.791-2.791v-8.523A.249.249,0,0,0,25.27,200H.249A.249.249,0,0,0,0,200.249Zm6.38,6.529a.8.8,0,0,1-.8.8h-.8a.8.8,0,0,1-.8-.8v-.8a.8.8,0,0,1,.8-.8h.8a.8.8,0,0,1,.8.8Z" transform="translate(0 -114.019)"/></g></svg>