<svg xmlns="http://www.w3.org/2000/svg" width="18.619" height="18.619" viewBox="0 0 18.619 18.619"><defs><style>.a{fill:#2d2d2d;}</style></defs><path class="a" d="M1.358,0H7.176A1.359,1.359,0,0,1,8.534,1.358V4.849A1.359,1.359,0,0,1,7.176,6.207H1.358A1.359,1.359,0,0,1,0,4.849V1.358A1.359,1.359,0,0,1,1.358,0Zm0,0" transform="translate(10.085)"/><path class="a" d="M1.358,213.332H7.176a1.359,1.359,0,0,1,1.358,1.358v8.146a1.359,1.359,0,0,1-1.358,1.358H1.358A1.359,1.359,0,0,1,0,222.836V214.69A1.359,1.359,0,0,1,1.358,213.332Zm0,0" transform="translate(10.085 -205.574)"/><path class="a" d="M278.69,341.332h5.819a1.359,1.359,0,0,1,1.358,1.358v3.491a1.359,1.359,0,0,1-1.358,1.358H278.69a1.359,1.359,0,0,1-1.358-1.358V342.69A1.359,1.359,0,0,1,278.69,341.332Zm0,0" transform="translate(-277.332 -328.919)"/><path class="a" d="M278.69,0h5.819a1.359,1.359,0,0,1,1.358,1.358V9.5a1.359,1.359,0,0,1-1.358,1.358H278.69A1.359,1.359,0,0,1,277.332,9.5V1.358A1.359,1.359,0,0,1,278.69,0Zm0,0" transform="translate(-277.332)"/></svg>