<svg xmlns="http://www.w3.org/2000/svg" width="18.994" height="21.611" viewBox="0 0 18.994 21.611"><defs><style>.a{fill:#1e0b89;}</style></defs><g transform="translate(-31)"><g transform="translate(34.799)"><g transform="translate(0)"><path class="a" d="M126.7,0a5.7,5.7,0,1,0,5.7,5.7A5.7,5.7,0,0,0,126.7,0Z" transform="translate(-121)"/></g></g><g transform="translate(31 12.663)"><g transform="translate(0)"><path class="a" d="M47.587,302.456A8.123,8.123,0,0,0,41.763,300H39.231a8.123,8.123,0,0,0-5.823,2.456A8.3,8.3,0,0,0,31,308.315a.633.633,0,0,0,.633.633H49.361a.633.633,0,0,0,.633-.633A8.3,8.3,0,0,0,47.587,302.456Z" transform="translate(-31 -300)"/></g></g></g></svg>